<svg width="28" height="28" viewBox="0 0 28 28" fill="none" xmlns="http://www.w3.org/2000/svg">
<path d="M25.6669 9.64801V4.93467C25.6669 3.07967 24.9202 2.33301 23.0652 2.33301H18.3519C16.4969 2.33301 15.7502 3.07967 15.7502 4.93467V9.64801C15.7502 11.503 16.4969 12.2497 18.3519 12.2497H23.0652C24.9202 12.2497 25.6669 11.503 25.6669 9.64801Z" stroke="url(#paint0_linear_211_247)" stroke-width="2" stroke-linecap="round" stroke-linejoin="round"/>
<path d="M12.2502 9.93968V4.64301C12.2502 2.99801 11.5035 2.33301 9.6485 2.33301H4.93516C3.08016 2.33301 2.3335 2.99801 2.3335 4.64301V9.92801C2.3335 11.5847 3.08016 12.238 4.93516 12.238H9.6485C11.5035 12.2497 12.2502 11.5847 12.2502 9.93968Z" stroke="url(#paint1_linear_211_247)" stroke-width="2" stroke-linecap="round" stroke-linejoin="round"/>
<path d="M12.2502 23.065V18.3517C12.2502 16.4967 11.5035 15.75 9.6485 15.75H4.93516C3.08016 15.75 2.3335 16.4967 2.3335 18.3517V23.065C2.3335 24.92 3.08016 25.6667 4.93516 25.6667H9.6485C11.5035 25.6667 12.2502 24.92 12.2502 23.065Z" stroke="url(#paint2_linear_211_247)" stroke-width="2" stroke-linecap="round" stroke-linejoin="round"/>
<path d="M17.5 18.083H24.5" stroke="white" stroke-width="2" stroke-linecap="round"/>
<path d="M17.5 22.75H24.5" stroke="white" stroke-width="2" stroke-linecap="round"/>
<defs>
<linearGradient id="paint0_linear_211_247" x1="16.3956" y1="9.31515" x2="24.8327" y2="9.31515" gradientUnits="userSpaceOnUse">
<stop stop-color="#27A89D"/>
<stop offset="1" stop-color="#12B9AB"/>
</linearGradient>
<linearGradient id="paint1_linear_211_247" x1="2.97887" y1="9.30704" x2="11.4159" y2="9.30704" gradientUnits="userSpaceOnUse">
<stop stop-color="#27A89D"/>
<stop offset="1" stop-color="#12B9AB"/>
</linearGradient>
<linearGradient id="paint2_linear_211_247" x1="2.97887" y1="22.7321" x2="11.4159" y2="22.7321" gradientUnits="userSpaceOnUse">
<stop stop-color="#27A89D"/>
<stop offset="1" stop-color="#12B9AB"/>
</linearGradient>
</defs>
</svg>
