<svg width="28" height="28" viewBox="0 0 28 28" fill="none" xmlns="http://www.w3.org/2000/svg">
<path d="M11.2583 16.0998L13.1366 17.5581C13.3816 17.8031 13.93 17.9197 14.2916 17.9197H16.6016C17.3249 17.9197 18.1183 17.3714 18.305 16.6481L19.7633 12.2264C20.0666 11.3747 19.5183 10.6514 18.6083 10.6514H16.1816C15.8199 10.6514 15.5166 10.3481 15.575 9.92807L15.8783 7.99136C15.995 7.44303 15.6333 6.83634 15.0849 6.66134C14.5949 6.47468 13.9883 6.71966 13.7549 7.08133L11.27 10.7797" stroke="white" stroke-width="1.5" stroke-miterlimit="10"/>
<path d="M8.16675 16.0998V10.1613C8.16675 9.30967 8.5284 9.00635 9.38007 9.00635H9.98674C10.8384 9.00635 11.2001 9.30967 11.2001 10.1613V16.0998C11.2001 16.9514 10.8384 17.2548 9.98674 17.2548H9.38007C8.5284 17.2548 8.16675 16.9514 8.16675 16.0998Z" stroke="white" stroke-width="1.5" stroke-linecap="round" stroke-linejoin="round"/>
<path d="M21 22.0035H20.1133C19.18 22.0035 18.2933 22.3652 17.64 23.0185L15.645 24.9903C14.735 25.8886 13.2533 25.8886 12.3433 24.9903L10.3483 23.0185C9.69499 22.3652 8.79667 22.0035 7.875 22.0035H7C5.06333 22.0035 3.5 20.4519 3.5 18.5386V5.81018C3.5 3.89685 5.06333 2.34521 7 2.34521H21C22.9367 2.34521 24.5 3.89685 24.5 5.81018V18.5386C24.5 20.4402 22.9367 22.0035 21 22.0035Z" stroke="url(#paint0_linear_212_728)" stroke-width="2" stroke-miterlimit="10" stroke-linecap="round" stroke-linejoin="round"/>
<defs>
<linearGradient id="paint0_linear_212_728" x1="4.86667" y1="18.7635" x2="22.7333" y2="18.7635" gradientUnits="userSpaceOnUse">
<stop stop-color="#27A89D"/>
<stop offset="1" stop-color="#12B9AB"/>
</linearGradient>
</defs>
</svg>
