<svg width="28" height="28" viewBox="0 0 28 28" fill="none" xmlns="http://www.w3.org/2000/svg">
<path d="M17.7812 25.9809H17.6295C12.4495 25.9809 9.95282 23.9392 9.52116 19.3659C9.47449 18.8876 9.82449 18.4559 10.3145 18.4092C10.7928 18.3626 11.2245 18.7242 11.2712 19.2026C11.6095 22.8659 13.3362 24.2309 17.6412 24.2309H17.7928C22.5412 24.2309 24.2212 22.5509 24.2212 17.8026V10.1959C24.2212 5.44758 22.5412 3.76758 17.7928 3.76758H17.6412C13.3128 3.76758 11.5862 5.15591 11.2712 8.88924C11.2128 9.36758 10.8162 9.72924 10.3145 9.68258C9.82449 9.64758 9.47449 9.21591 9.50949 8.73758C9.90616 4.09424 12.4145 2.01758 17.6295 2.01758H17.7812C23.5095 2.01758 25.9595 4.46758 25.9595 10.1959V17.8026C25.9595 23.5309 23.5095 25.9809 17.7812 25.9809Z" fill="url(#paint0_linear_211_133)"/>
<path d="M17.3609 14.875H2.33423C1.8559 14.875 1.45923 14.4783 1.45923 14C1.45923 13.5217 1.8559 13.125 2.33423 13.125H17.3609C17.8392 13.125 18.2359 13.5217 18.2359 14C18.2359 14.4783 17.8509 14.875 17.3609 14.875Z" fill="white"/>
<path d="M14.7568 18.783C14.5352 18.783 14.3135 18.7013 14.1385 18.5263C13.8002 18.188 13.8002 17.628 14.1385 17.2897L17.4285 13.9997L14.1385 10.7097C13.8002 10.3713 13.8002 9.81132 14.1385 9.47299C14.4768 9.13465 15.0368 9.13465 15.3752 9.47299L19.2835 13.3813C19.6219 13.7197 19.6219 14.2797 19.2835 14.618L15.3752 18.5263C15.2002 18.7013 14.9785 18.783 14.7568 18.783Z" fill="white"/>
<defs>
<linearGradient id="paint0_linear_211_133" x1="10.5778" y1="18.8897" x2="24.5754" y2="18.8897" gradientUnits="userSpaceOnUse">
<stop stop-color="#27A89D"/>
<stop offset="1" stop-color="#12B9AB"/>
</linearGradient>
</defs>
</svg>
