<svg width="261" height="261" viewBox="0 0 261 261" fill="none" xmlns="http://www.w3.org/2000/svg">
<circle cx="130.5" cy="130.5" r="125.5" fill="#F7931A" stroke="black" stroke-width="10"/>
<path d="M171.358 124.633C179.801 120.339 185.085 112.777 183.85 100.18C182.188 82.9637 167.296 77.1907 148.497 75.5467L148.493 51.6667H133.927L133.923 74.9187C130.091 74.9187 126.184 74.9939 122.295 75.0717L122.292 51.6699L107.739 51.6686L107.736 75.5426C104.582 75.6069 101.485 75.668 98.4608 75.668V75.5974L78.3698 75.5893L78.3725 91.1114C78.3725 91.1114 89.1291 90.9095 88.9519 91.1055C94.8496 91.1096 96.7753 94.528 97.3292 97.4788L97.3337 124.683V162.896C97.074 164.748 95.9813 167.707 91.8575 167.712C92.0451 167.877 81.2617 167.711 81.2617 167.711L78.3725 185.068H97.3246C100.856 185.072 104.326 185.127 107.73 185.154L107.743 209.304L122.292 209.308L122.288 185.411C126.291 185.492 130.154 185.528 133.928 185.523L133.924 209.308H148.49L148.498 185.198C172.981 183.795 190.122 177.638 192.253 154.688C193.971 136.21 185.258 127.963 171.358 124.633ZM122.643 92.1591C130.858 92.1591 156.694 89.5479 156.698 106.677C156.694 123.099 130.866 121.18 122.643 121.18V92.1591ZM122.637 167.83L122.643 135.831C132.513 135.829 163.471 132.996 163.475 151.823C163.479 169.878 132.513 167.823 122.637 167.83Z" fill="white"/>
</svg>
