<svg width="48" height="48" viewBox="0 0 48 48" fill="none" xmlns="http://www.w3.org/2000/svg">
<mask id="mask0_18_1303" style="mask-type:alpha" maskUnits="userSpaceOnUse" x="4" y="4" width="40" height="40">
<path fill-rule="evenodd" clip-rule="evenodd" d="M4 24C4 12.96 12.96 4 24 4C35.04 4 44 12.96 44 24C44 35.04 35.04 44 24 44C12.96 44 4 35.04 4 24ZM17.72 23.72L23.3 29.3C23.68 29.68 24.32 29.68 24.72 29.28L30.3 23.7C30.94 23.08 30.5 22 29.6 22H18.42C17.52 22 17.08 23.08 17.72 23.72Z" fill="black"/>
</mask>
<g mask="url(#mask0_18_1303)">
<rect width="48" height="48" fill="url(#paint0_linear_18_1303)"/>
</g>
<defs>
<linearGradient id="paint0_linear_18_1303" x1="3.12381" y1="33.7959" x2="43.9619" y2="33.7959" gradientUnits="userSpaceOnUse">
<stop stop-color="#27A89D"/>
<stop offset="1" stop-color="#12B9AB"/>
</linearGradient>
</defs>
</svg>
