<svg width="214" height="214" viewBox="0 0 214 214" fill="none" xmlns="http://www.w3.org/2000/svg">
<circle cx="107" cy="107" r="107" fill="#22A99E"/>
<path d="M82 83.6652C82.4 83.4652 82.9 83.4652 83.2 83.1652C83.8 83.1652 84.3 82.7652 84.8 82.3652C85 82.2652 85.1 82.2652 85.3 82.1652C85.6 82.0652 85.9 82.1652 86.1 81.9652C90.6 79.7652 95.1 77.5652 99.7 75.4652C100.3 75.1652 100.3 74.7652 100.4 74.2652C100.5 69.6652 100.5 65.0652 100.6 60.4652C100.6 59.7652 100.4 59.2652 99.8 58.9652C97.4 57.4652 95.6 55.4652 94.5 52.9652C91.9 47.1652 92.8 41.8652 96.7 36.9652C100 32.8652 106.6 30.9652 111.7 32.5652C117.8 34.5652 121.5 38.8652 122.2 45.2652C122.8 50.9652 120.4 55.5652 115.6 58.7652C115 59.1652 114.7 59.6652 114.7 60.3652C114.8 62.4652 114.7 64.5652 114.7 66.6652C114.7 68.1652 114.8 68.1652 116.1 67.5652C122 64.7652 128 61.8652 133.9 59.0652C135 58.5652 135.2 58.5652 135.2 59.8652C135.2 64.2652 135.2 68.5652 135.2 72.9652C135.2 73.6652 134.9 74.0652 134.3 74.2652C128.1 77.1652 122 80.1652 115.8 83.0652C115.2 83.3652 114.9 83.6652 114.9 84.3652C114.9 86.3652 114.9 88.3652 114.9 90.3652C114.9 91.8652 115 91.9652 116.3 91.2652C122.1 88.4652 127.9 85.6652 133.7 82.9652C134.9 82.3652 135 82.4652 135 83.6652C135 87.7652 135 91.9652 135 96.0652C135 97.1652 134.7 97.7652 133.6 98.2652C127.9 100.965 122.3 103.665 116.6 106.365C115.5 106.865 115.1 107.465 115.2 108.665C115.4 110.665 115.4 112.765 115.4 114.865C115.6 122.365 115.8 129.965 115.9 137.465C116.1 144.665 116.2 151.765 116.4 158.965C116.5 161.465 116.5 161.465 118.6 160.365C128.9 155.165 139.2 149.965 149.6 144.765C150.3 144.365 150.6 143.965 150.6 143.165C150.5 139.965 150.5 136.765 150.6 133.565C150.6 132.465 150.4 132.165 149.2 132.165C147 132.265 145.3 130.865 144.5 128.865C143.7 126.765 144 124.865 145.6 123.165C146.3 122.365 147.3 122.165 148 121.465C148.3 121.365 148.7 121.265 148.9 120.965C149.6 120.665 150.3 120.565 150.9 119.965C151.1 119.865 151.3 119.765 151.6 119.665C151.9 119.765 152.1 119.565 152.3 119.365C152.6 119.365 152.8 119.265 152.9 119.065C153.2 119.065 153.6 118.965 153.7 118.565H153.8L153.9 118.465C154.3 118.365 154.6 118.265 155 118.065C158.8 116.465 162.7 118.865 162.7 122.965C162.8 131.765 162.7 140.665 162.7 149.465C162.7 151.565 161.7 153.165 159.8 154.065C155.7 156.165 151.6 158.265 147.5 160.265C135.2 166.465 122.9 172.665 110.6 178.865C108.4 179.965 106.3 180.065 104.1 178.965C98.1 175.965 92.1 172.865 86.1 169.865C75.7 164.565 65.4 159.365 55 154.065C53 153.065 52 151.565 52 149.365C52 146.265 52 143.265 52 140.165C52 134.365 52 128.465 52 122.665C52 118.765 56.2 116.065 59.6 117.765C62.3 119.065 65 120.465 67.7 121.865C68.8 122.365 69.5 123.165 70.1 124.265C71.9 127.565 69.3 131.765 65.6 131.865C65.1 131.865 64.2 131.465 64.2 132.465C64.2 133.965 63.9 135.565 64.4 137.065C64.4 137.465 64.4 137.965 64.4 138.365C64 139.765 64.3 141.265 64.2 142.665C64.1 143.565 64.5 143.965 65.3 144.365C72.3 147.865 79.2 151.365 86.1 154.865C87.2 155.465 88.2 156.165 89.5 156.365C89.7 156.865 90 156.965 90.5 156.965C92.6 158.365 94.9 159.265 97 160.465C98.2 161.065 98.4 160.965 98.4 159.565C98.6 152.365 98.8 145.065 98.9 137.865C99.1 130.565 99.3 123.265 99.4 116.065C99.4 114.565 99.3 114.465 97.9 115.165C96.7 115.765 95.6 116.265 94.4 116.865C89.9 119.065 85.4 121.165 80.9 123.365C79.9 123.865 79.7 123.665 79.7 122.565C79.7 118.265 79.7 113.965 79.7 109.665C79.7 108.865 79.9 108.465 80.6 108.165C82.2 107.465 83.7 106.665 85.2 105.965C89.8 103.765 94.3 101.565 98.9 99.4652C99.5 99.1652 99.7 98.7652 99.7 98.0652C99.7 95.9652 99.7 93.9652 99.7 91.8652C99.7 90.5652 99.6 90.4652 98.4 91.0652C92.5 93.8652 86.6 96.6652 80.7 99.5652C79.7 100.065 79.5 99.8652 79.5 98.7652C79.5 94.9652 79.6 91.2652 79.5 87.4652C79.5 85.7652 79.5 84.1652 81.5 83.6652C82 83.7652 82 83.6652 82 83.6652ZM107.5 52.1652C110.8 52.1652 113.2 49.8652 113.2 46.6652C113.2 43.2652 110.9 40.8652 107.7 40.8652C104.4 40.8652 102 43.2652 101.9 46.5652C101.8 49.7652 104.2 52.1652 107.5 52.1652Z" fill="white"/>
</svg>
