<svg width="240" height="180" viewBox="0 0 240 180" fill="none" xmlns="http://www.w3.org/2000/svg">
<g id="sent_illustration">
<g id="freepik--background-complete--inject-128">
<rect id="Rectangle" y="158.181" width="240" height="0.120786" fill="#E0E0E0"/>
<rect id="Rectangle_2" x="164.765" y="163.298" width="16.512" height="0.120786" fill="#E0E0E0"/>
<rect id="Rectangle_3" x="44.0063" y="163.356" width="9.2928" height="0.120786" fill="#E0E0E0"/>
<rect id="Rectangle_4" x="101.645" y="163.075" width="18.8352" height="0.120786" fill="#E0E0E0"/>
<rect id="Rectangle_5" x="92.7456" y="161.355" width="8.4192" height="0.120786" fill="#E0E0E0"/>
<rect id="Rectangle_6" x="178.354" y="161.418" width="25.4352" height="0.120786" fill="#E0E0E0"/>
<path id="Shape" fill-rule="evenodd" clip-rule="evenodd" d="M21.0768 136.633H113.76C115.274 136.633 116.501 135.398 116.501 133.874V2.75875C116.501 1.23513 115.274 0 113.76 0H21.0768C19.5743 0.00259064 18.354 1.2223 18.3408 2.73459V133.874C18.3408 135.396 19.565 136.63 21.0768 136.633ZM18.4608 2.73459C18.4608 1.27957 19.6313 0.0992936 21.0768 0.0966287H113.76C115.206 0.0992877 116.378 1.27879 116.381 2.73459V133.874C116.378 135.33 115.206 136.51 113.76 136.512H21.0768C19.6313 136.51 18.4608 135.329 18.4608 133.874V2.73459Z" fill="#E0E0E0"/>
<path id="Shape_2" fill-rule="evenodd" clip-rule="evenodd" d="M124.901 136.633H217.589C219.099 136.628 220.32 135.394 220.32 133.874V2.73459C220.307 1.22418 219.089 0.00523279 217.589 0H124.901C123.397 0.00256215 122.176 1.22152 122.16 2.73459V133.874C122.163 135.397 123.388 136.63 124.901 136.633ZM122.28 2.73459C122.283 1.27879 123.454 0.0992877 124.901 0.0966287H217.589C219.035 0.0992877 220.207 1.27879 220.21 2.73459V133.874C220.207 135.33 219.035 136.51 217.589 136.512H124.901C123.454 136.51 122.283 135.33 122.28 133.874V2.73459Z" fill="#E0E0E0"/>
<path id="Path" d="M210.869 97.7061C204.965 88.6569 210.355 78.9312 209.458 68.8625C208.56 58.7937 199.056 56.6003 200.856 48.0873C202.939 38.1925 197.386 28.6987 191.093 28.6987C184.8 28.6987 179.251 38.1683 181.334 48.0728C183.134 56.6003 173.654 58.7986 172.733 68.848C171.811 78.8974 177.226 88.6569 171.317 97.6916C165.408 106.726 166.963 118.723 170.29 124.67C171.174 126.248 172.241 127.716 173.467 129.043C178.024 133.967 184.409 136.764 191.095 136.764C197.781 136.764 204.166 133.967 208.723 129.043C209.946 127.715 211.011 126.247 211.896 124.67C215.227 118.737 216.778 106.775 210.869 97.7061Z" fill="#E0E0E0"/>
<path id="Path_2" d="M191.093 104.572C191.885 104.572 192.644 104.888 193.204 105.452C193.764 106.015 194.079 106.78 194.079 107.577V158.181H188.107V107.577C188.107 106.78 188.422 106.015 188.982 105.452C189.542 104.888 190.301 104.572 191.093 104.572Z" fill="#F0F0F0"/>
<path id="Path_3" d="M153.557 158.181H145.44V107.582C145.445 105.324 147.262 103.495 149.506 103.489C151.749 103.495 153.566 105.324 153.571 107.582L153.557 158.181Z" fill="#E0E0E0"/>
<ellipse id="Oval" cx="149.491" cy="119.327" rx="25.0416" ry="25.2056" fill="#F0F0F0"/>
<ellipse id="Oval_2" cx="169.339" cy="109.369" rx="9.92969" ry="9.87257" transform="rotate(-76.05 169.339 109.369)" fill="#F0F0F0"/>
<ellipse id="Oval_3" cx="129.235" cy="103.486" rx="5.87887" ry="5.84259" transform="rotate(-80.75 129.235 103.486)" fill="#F0F0F0"/>
<ellipse id="Oval_4" cx="135.59" cy="100.446" rx="4.0992" ry="4.12605" fill="#F0F0F0"/>
<path id="Path_4" d="M97.92 127.98C94.026 128.564 90.3047 129.993 87.0144 132.169C86.9856 128.342 86.2896 124.714 84.504 121.781C81.7872 124.443 79.584 127.893 77.784 131.603C77.1264 124.651 75.3072 117.887 71.28 113.602C65.2464 117.423 62.136 123.791 60.6576 130.536C58.2152 125.988 54.6701 122.136 50.352 119.336C46.6608 123.25 45.48 128.661 45.5808 134.208C41.3856 129.289 36.7296 125.453 32.1888 125.004C31.0704 132.778 33.4512 140.112 36.48 145.909C40.4874 153.49 48.3343 158.216 56.8656 158.186H76.5888C84.9936 158.186 92.8752 153.673 96.816 146.199C99.3072 141.464 100.498 135.372 97.92 127.98Z" fill="#E0E0E0"/>
<path id="Path_5" d="M92.2847 27.6069C94.7183 20.4225 92.7647 15.306 86.8271 15.306C83.0927 15.306 78.4607 17.3207 73.9487 20.5965C73.4399 18.7267 72.0047 17.6106 69.6959 17.6106C65.6303 17.6106 60.0287 21.0699 55.6367 25.9497C54.4002 24.7672 52.7632 24.1022 51.0575 24.0896C47.1647 23.8673 42.4559 25.8579 38.3615 29.0901C37.9453 28.5037 37.2728 28.1562 36.5567 28.1577C34.3151 28.032 31.2767 30.0419 29.7743 32.6412C29.6831 32.8007 29.6015 32.9601 29.5151 33.1244H93.4655C93.6575 30.8536 93.2591 28.9597 92.2847 27.6069Z" fill="#F0F0F0"/>
<path id="Path_6" d="M92.4816 71.2298C93.672 67.7222 92.7264 65.2244 89.8176 65.2244C87.9888 65.2244 85.728 66.1907 83.5248 67.8092C83.2796 66.8778 82.3988 66.2636 81.4464 66.3598C79.464 66.3598 76.728 68.0508 74.5776 70.4375C73.9748 69.8579 73.1743 69.5329 72.3408 69.5292C70.4208 69.4181 68.1408 70.3892 66.1392 71.9691C65.9423 71.6857 65.6234 71.5135 65.28 71.5052C64.1856 71.4424 62.7024 72.4232 61.968 73.6939L61.8384 73.9258H93.0768C93.2074 72.9843 92.996 72.027 92.4816 71.2298Z" fill="#F0F0F0"/>
<path id="Path_7" d="M164.53 44.6859C164.283 44.6511 164.034 44.6333 163.786 44.6328C164.016 41.13 162.686 38.8882 159.84 38.8882C157.79 38.8882 155.27 40.0574 152.707 42.0335C153.442 35.2308 151.09 30.8101 145.762 30.8101C141.47 30.8101 136.032 33.7089 130.661 38.3761C130.181 35.7091 128.606 34.1051 125.947 34.1051C121.277 34.1051 114.638 39.0525 109.315 46.0291C108.087 44.3997 106.191 43.4175 104.16 43.3573C99.7152 43.0433 94.1904 45.8841 89.28 50.5127C88.9154 49.7162 88.1302 49.2 87.2592 49.184C84.8256 49.0101 81.4992 51.5659 79.5264 54.9817H168.442C170.53 49.8024 168.869 45.2705 164.53 44.6859Z" fill="#F0F0F0"/>
</g>
<g id="freepik--Shadow--inject-128">
<ellipse id="Oval_5" cx="120" cy="174.531" rx="93.0672" ry="5.46919" fill="#F5F5F5"/>
</g>
<g id="freepik--Mail--inject-128">
<path id="Path_8" d="M23.4529 46.1692L132.878 62.026L147.562 76.9406L23.4529 46.1692Z" fill="#1A87DD"/>
<path id="Path_9" d="M23.4529 46.1692L132.878 62.026L147.562 76.9406L23.4529 46.1692Z" fill="url(#paint0_linear_1014_393)"/>
<path id="Path_10" d="M23.4529 46.1692L132.878 62.026L127.8 83.5935L23.4529 46.1692Z" fill="#1A87DD"/>
<path id="Path_11" d="M23.4529 46.1692L132.878 62.026L127.8 83.5935L23.4529 46.1692Z" fill="url(#paint1_linear_1014_393)"/>
<path id="Path_12" d="M125.554 21.2003L131.904 51.1552C132.248 52.7838 131.217 54.3854 129.6 54.7353L72.9217 66.9105C71.3041 67.2539 69.7148 66.2176 69.3649 64.5914L63.0097 34.6365C62.6687 33.0068 63.7009 31.4064 65.3185 31.0564L121.997 18.8812C123.616 18.538 125.206 19.5769 125.554 21.2051V21.2003Z" fill="#1A87DD"/>
<path id="Path_13" d="M125.554 21.2003L131.904 51.1552C132.248 52.7838 131.217 54.3854 129.6 54.7353L72.9217 66.9105C71.3041 67.2539 69.7148 66.2176 69.3649 64.5914L63.0097 34.6365C62.6687 33.0068 63.7009 31.4064 65.3185 31.0564L121.997 18.8812C123.616 18.538 125.206 19.5769 125.554 21.2051V21.2003Z" fill="url(#paint2_linear_1014_393)"/>
<path id="Path_14" d="M124.157 19.2387L105.221 42.6374C101.603 47.1066 95.3846 48.4428 90.2689 45.8503L63.4897 32.2739C63.923 31.6475 64.5768 31.2105 65.3185 31.0516L121.997 18.8764C122.737 18.7179 123.508 18.8474 124.157 19.2387Z" fill="url(#paint3_linear_1014_393)"/>
<path id="Path_15" d="M23.4529 46.1692L113.707 67.7609L127.8 83.5935L23.4529 46.1692Z" fill="#1A87DD"/>
<path id="Path_16" d="M23.4529 46.1692L113.707 67.7609L127.8 83.5935L23.4529 46.1692Z" fill="url(#paint4_linear_1014_393)"/>
<g id="Rectangle_7">
<path d="M56.1331 67.3975L56.3757 66.9806L66.4195 72.9024L66.1769 73.3193L56.1331 67.3975Z" fill="url(#paint5_linear_1014_393)"/>
<path d="M56.1331 67.3975L56.3757 66.9806L66.4195 72.9024L66.1769 73.3193L56.1331 67.3975Z" fill="black" fill-opacity="0.2"/>
</g>
<g id="Rectangle_8">
<path d="M70.6111 75.93L70.8537 75.5131L74.4653 77.6425L74.2227 78.0594L70.6111 75.93Z" fill="url(#paint6_linear_1014_393)"/>
<path d="M70.6111 75.93L70.8537 75.5131L74.4653 77.6425L74.2227 78.0594L70.6111 75.93Z" fill="black" fill-opacity="0.2"/>
</g>
<path id="Path_17" d="M23.4529 46.1692L113.707 67.7609L96.1633 89.0434L23.4529 46.1692Z" fill="url(#paint7_linear_1014_393)"/>
<path id="Path_18" d="M144.173 96.7543C144.051 96.7546 143.931 96.7317 143.818 96.6867L129.12 90.831C128.631 90.6325 128.392 90.0736 128.586 89.5796C128.78 89.0856 129.334 88.8417 129.826 89.0337L144.528 94.8894C144.957 95.0601 145.205 95.5139 145.118 95.97C145.031 96.4261 144.634 96.7555 144.173 96.7543Z" fill="#1A87DD"/>
<g id="Path_19">
<path d="M144.173 96.7543C144.051 96.7546 143.931 96.7317 143.818 96.6867L129.12 90.831C128.631 90.6325 128.392 90.0736 128.586 89.5796C128.78 89.0856 129.334 88.8417 129.826 89.0337L144.528 94.8894C144.957 95.0601 145.205 95.5139 145.118 95.97C145.031 96.4261 144.634 96.7555 144.173 96.7543Z" fill="url(#paint8_linear_1014_393)"/>
<path d="M144.173 96.7543C144.051 96.7546 143.931 96.7317 143.818 96.6867L129.12 90.831C128.631 90.6325 128.392 90.0736 128.586 89.5796C128.78 89.0856 129.334 88.8417 129.826 89.0337L144.528 94.8894C144.957 95.0601 145.205 95.5139 145.118 95.97C145.031 96.4261 144.634 96.7555 144.173 96.7543Z" fill="black" fill-opacity="0.2"/>
</g>
<path id="Path_20" d="M143.304 88.2702C143.184 88.2695 143.065 88.2449 142.954 88.1978L135.058 85.0332C134.736 84.9079 134.507 84.619 134.455 84.2761C134.404 83.9332 134.539 83.589 134.809 83.374C135.08 83.159 135.444 83.1063 135.763 83.2359L143.659 86.386C144.152 86.5812 144.395 87.141 144.202 87.6373C144.063 88.0164 143.705 88.2688 143.304 88.2702Z" fill="#1A87DD"/>
<path id="Path_21" d="M143.304 88.2702C143.184 88.2695 143.065 88.2449 142.954 88.1978L135.058 85.0332C134.736 84.9079 134.507 84.619 134.455 84.2761C134.404 83.9332 134.539 83.589 134.809 83.374C135.08 83.159 135.444 83.1063 135.763 83.2359L143.659 86.386C144.152 86.5812 144.395 87.141 144.202 87.6373C144.063 88.0164 143.705 88.2688 143.304 88.2702Z" fill="url(#paint9_linear_1014_393)"/>
<path id="Path_22" d="M126.797 96.6286C126.677 96.6272 126.558 96.6043 126.447 96.561L112.109 90.8309C111.788 90.7056 111.558 90.4167 111.507 90.0738C111.455 89.7309 111.59 89.3867 111.861 89.1717C112.131 88.9568 112.495 88.9041 112.815 89.0336L127.152 94.7444C127.581 94.9151 127.829 95.3689 127.742 95.825C127.655 96.2811 127.258 96.6105 126.797 96.6093V96.6286Z" fill="#1A87DD"/>
<g id="Path_23">
<path d="M126.797 96.6286C126.677 96.6272 126.558 96.6043 126.447 96.561L112.109 90.8309C111.788 90.7056 111.558 90.4167 111.507 90.0738C111.455 89.7309 111.59 89.3867 111.861 89.1717C112.131 88.9568 112.495 88.9041 112.815 89.0336L127.152 94.7444C127.581 94.9151 127.829 95.3689 127.742 95.825C127.655 96.2811 127.258 96.6105 126.797 96.6093V96.6286Z" fill="url(#paint10_linear_1014_393)"/>
<path d="M126.797 96.6286C126.677 96.6272 126.558 96.6043 126.447 96.561L112.109 90.8309C111.788 90.7056 111.558 90.4167 111.507 90.0738C111.455 89.7309 111.59 89.3867 111.861 89.1717C112.131 88.9568 112.495 88.9041 112.815 89.0336L127.152 94.7444C127.581 94.9151 127.829 95.3689 127.742 95.825C127.655 96.2811 127.258 96.6105 126.797 96.6093V96.6286Z" fill="black" fill-opacity="0.2"/>
</g>
</g>
<g id="freepik--Character--inject-128">
<path id="Path_24" d="M178.704 53.0588C179.976 55.5567 181.142 58.0594 182.251 60.62C183.36 63.1807 184.392 65.7752 185.294 68.4953L185.621 69.5244C185.678 69.708 185.76 70.0075 185.808 70.2201C185.856 70.4327 185.899 70.6743 185.923 70.8772C186.033 71.6566 186.089 72.4428 186.091 73.2301C186.098 74.682 186.031 76.1334 185.889 77.5784C185.621 80.3756 185.185 83.1539 184.584 85.8981L181.949 85.6034C181.915 82.8833 181.891 80.1342 181.795 77.4528C181.752 76.1193 181.675 74.781 181.541 73.5248C181.48 72.9349 181.384 72.3492 181.253 71.771C181.229 71.6357 181.19 71.5343 181.161 71.4231C181.133 71.312 181.104 71.2734 181.056 71.1284L180.691 70.2153C179.688 67.7706 178.56 65.3065 177.408 62.8522L173.923 55.4891L178.704 53.0588Z" fill="#E4897B"/>
<path id="Path_25" d="M181.987 84.7531L180.758 87.0673L184.685 88.1689C184.685 88.1689 185.434 86.3088 184.541 84.84L181.987 84.7531Z" fill="#E4897B"/>
<path id="Path_26" d="M179.256 90.401L182.865 90.6908L184.685 88.1688L180.758 87.0673L179.256 90.401Z" fill="#E4897B"/>
<path id="Path_27" d="M162.177 36.3614C162.125 36.6465 161.928 36.8445 161.745 36.8059C161.563 36.7672 161.462 36.5112 161.52 36.231C161.577 35.9507 161.769 35.7478 161.952 35.7865C162.134 35.8251 162.24 36.0812 162.177 36.3614Z" fill="#263238"/>
<path id="Path_28" d="M161.957 36.8445C161.45 37.6349 160.838 38.3518 160.138 38.9751C160.469 39.3294 160.937 39.5201 161.419 39.4969L161.957 36.8445Z" fill="#DE5753"/>
<path id="Path_29" d="M163.512 35.0134C163.467 35.0123 163.424 34.9932 163.392 34.9603C163.112 34.6383 162.697 34.4697 162.274 34.5061C162.192 34.507 162.121 34.4479 162.107 34.3664C162.092 34.285 162.139 34.2051 162.216 34.1776C162.758 34.1085 163.299 34.317 163.656 34.7332C163.72 34.799 163.72 34.9042 163.656 34.97C163.617 35.0058 163.564 35.0218 163.512 35.0134Z" fill="#263238"/>
<path id="Path_30" d="M170.117 40.3086C169.613 42.9079 169.109 47.662 170.914 49.3965C170.914 49.3965 170.208 52.0297 165.413 52.0297C160.133 52.0297 162.898 49.3965 162.898 49.3965C165.778 48.7056 165.696 46.5556 165.197 44.5409L170.117 40.3086Z" fill="#E4897B"/>
<path id="Path_31" d="M171.639 51.0344C172.018 49.7637 172.435 48.3095 171.571 47.8505C170.611 47.3673 165.394 46.8359 163.594 47.778C161.794 48.7201 162.307 51.3049 162.307 51.3049L171.639 51.0344Z" fill="#263238"/>
<path id="Shape_3" fill-rule="evenodd" clip-rule="evenodd" d="M181.863 171.393C182.102 171.615 182.406 171.714 182.707 171.666C183.017 171.664 183.326 171.624 183.629 171.547C183.661 171.54 183.686 171.511 183.691 171.473C183.696 171.434 183.683 171.395 183.658 171.37C183.657 171.37 183.655 171.368 183.654 171.367C183.572 171.302 182.633 170.554 182.127 170.687C182.014 170.716 181.918 170.801 181.863 170.921C181.777 171.062 181.777 171.252 181.863 171.393ZM182.165 170.869H182.266V170.881C182.674 170.949 183.064 171.124 183.408 171.393C182.88 171.495 182.16 171.495 182.011 171.256C181.983 171.234 181.935 171.165 182.011 171.006C182.043 170.936 182.099 170.886 182.165 170.869Z" fill="#1A87DD"/>
<path id="Shape_4" fill-rule="evenodd" clip-rule="evenodd" d="M183.571 171.429H183.61C183.62 171.429 183.629 171.428 183.639 171.424C183.666 171.409 183.681 171.378 183.677 171.347C183.677 171.303 183.605 170.279 183.197 169.941C183.097 169.859 182.97 169.821 182.842 169.835C182.711 169.834 182.598 169.928 182.573 170.057C182.501 170.463 183.207 171.226 183.571 171.429ZM182.88 169.98H182.899L182.88 169.989C182.962 169.978 183.045 170.001 183.111 170.052C183.355 170.373 183.499 170.76 183.523 171.163C183.163 170.888 182.712 170.303 182.755 170.066C182.756 170.065 182.756 170.064 182.756 170.063C182.761 170.04 182.776 169.98 182.88 169.98Z" fill="#1A87DD"/>
<path id="Shape_5" fill-rule="evenodd" clip-rule="evenodd" d="M160.497 171.355C160.646 171.594 161.083 171.668 161.534 171.668C161.895 171.668 162.255 171.628 162.609 171.549C162.644 171.542 162.671 171.51 162.677 171.469C162.682 171.429 162.667 171.388 162.638 171.366C162.637 171.365 162.634 171.364 162.63 171.361C162.512 171.284 161.33 170.507 160.766 170.689C160.653 170.72 160.556 170.804 160.497 170.922C160.42 171.052 160.42 171.225 160.497 171.355ZM160.814 170.86C160.867 170.851 160.92 170.851 160.973 170.86V170.871C161.46 170.933 161.933 171.107 162.365 171.383C161.702 171.492 160.809 171.475 160.651 171.213C160.613 171.179 160.589 171.122 160.651 170.996C160.687 170.925 160.746 170.876 160.814 170.86Z" fill="#1A87DD"/>
<path id="Shape_6" fill-rule="evenodd" clip-rule="evenodd" d="M162.566 171.429H162.6C162.622 171.437 162.647 171.435 162.667 171.424C162.692 171.407 162.705 171.377 162.701 171.347C162.701 171.346 162.701 171.344 162.7 171.342C162.692 171.26 162.595 170.338 162.154 169.98C162.023 169.861 161.847 169.808 161.674 169.835C161.443 169.859 161.362 169.975 161.362 170.071C161.299 170.463 162.139 171.241 162.566 171.429ZM161.688 169.98H161.741L161.76 169.989C161.85 169.995 161.936 170.031 162.005 170.091C162.275 170.394 162.443 170.777 162.485 171.183C162.062 170.922 161.486 170.318 161.525 170.076C161.525 170.075 161.525 170.074 161.526 170.073C161.531 170.049 161.547 169.98 161.688 169.98Z" fill="#1A87DD"/>
<path id="Path_32" d="M166.478 171.342H162.95L162.6 163.124H166.128L166.478 171.342Z" fill="#E4897B"/>
<path id="Path_33" d="M187.651 171.342H184.123L182.352 163.124H185.875L187.651 171.342Z" fill="#E4897B"/>
<path id="Path_34" d="M183.874 170.931H187.834C187.979 170.932 188.105 171.035 188.136 171.178L188.832 174.333C188.864 174.488 188.824 174.65 188.723 174.773C188.622 174.895 188.472 174.964 188.314 174.961C186.931 174.937 186.259 174.855 184.517 174.855C183.446 174.855 181.238 174.97 179.755 174.97C178.272 174.97 178.085 173.521 178.69 173.362C181.406 172.763 182.429 171.936 183.298 171.154C183.455 171.01 183.661 170.931 183.874 170.931Z" fill="#263238"/>
<path id="Path_35" d="M162.974 170.931H166.814C166.96 170.932 167.085 171.035 167.117 171.178L167.813 174.333C167.846 174.487 167.808 174.648 167.709 174.771C167.61 174.893 167.461 174.963 167.304 174.961C165.917 174.937 163.91 174.855 162.163 174.855C160.123 174.855 158.357 174.97 155.962 174.97C154.522 174.97 154.114 173.521 154.718 173.362C157.478 172.753 159.73 172.69 162.115 171.212C162.369 171.038 162.667 170.941 162.974 170.931V170.931Z" fill="#263238"/>
<path id="Path_36" d="M161.28 55.6291C158.331 55.3991 155.397 55.0072 152.491 54.455C151.051 54.1748 149.582 53.8608 148.123 53.4646C146.628 53.0793 145.159 52.5951 143.726 52.0152C143.357 51.8606 142.982 51.6915 142.613 51.532C142.197 51.3257 141.796 51.09 141.413 50.8266C140.722 50.3676 140.126 49.8893 139.536 49.4158C138.36 48.4496 137.27 47.4833 136.176 46.4928C134.03 44.4926 131.995 42.4248 130.032 40.2506L131.798 38.2649L138.763 43.3041C139.91 44.1351 141.072 44.9516 142.214 45.7198C142.781 46.1015 143.362 46.459 143.894 46.7634C144.117 46.8913 144.348 47.0043 144.586 47.1016C144.869 47.2127 145.157 47.3238 145.459 47.4301C148.053 48.2342 150.706 48.8319 153.394 49.2178C156.134 49.6526 158.966 50.0101 161.702 50.3L161.28 55.6291Z" fill="#E4897B"/>
<path id="Path_37" d="M177.226 50.1986C180.533 50.962 183.874 60.6877 183.874 60.6877L177.072 65.6013C177.072 65.6013 175.152 61.0694 173.299 57.1076C171.36 52.9574 173.846 49.4208 177.226 50.1986Z" fill="#1A87DD"/>
<path id="Path_38" d="M177.226 50.1986C180.533 50.962 183.874 60.6877 183.874 60.6877L177.072 65.6013C177.072 65.6013 175.152 61.0694 173.299 57.1076C171.36 52.9574 173.846 49.4208 177.226 50.1986Z" fill="url(#paint11_linear_1014_393)"/>
<path id="Path_39" d="M175.32 55.5132L173.971 58.5522C175.368 61.5863 176.645 64.5915 176.986 65.3935C176.938 61.8037 176.261 57.3491 175.32 55.5132Z" fill="#1A87DD"/>
<path id="Path_40" opacity="0.6" d="M175.32 55.5132L173.971 58.5522C175.368 61.5863 176.645 64.5915 176.986 65.3935C176.938 61.8037 176.261 57.3491 175.32 55.5132Z" fill="black"/>
<path id="Path_41" d="M157.474 50.3822C157.474 50.3822 153.72 54.6483 157.262 81.0618H176.122C176.256 78.1629 174.437 63.9295 177.226 50.1986C175.141 49.7945 173.033 49.5266 170.914 49.3966C168.244 49.2418 165.567 49.2418 162.898 49.3966C161.067 49.5822 159.253 49.9118 157.474 50.3822Z" fill="#1A87DD"/>
<path id="Path_42" d="M157.474 50.3822C157.474 50.3822 153.72 54.6483 157.262 81.0618H176.122C176.256 78.1629 174.437 63.9295 177.226 50.1986C175.141 49.7945 173.033 49.5266 170.914 49.3966C168.244 49.2418 165.567 49.2418 162.898 49.3966C161.067 49.5822 159.253 49.9118 157.474 50.3822Z" fill="url(#paint12_linear_1014_393)"/>
<path id="Path_43" d="M156.077 55.5132C155.952 56.5133 155.856 57.697 155.794 59.0933C157.656 58.5306 159.426 57.6938 161.045 56.6099L156.077 55.5132Z" fill="#1A87DD"/>
<path id="Path_44" opacity="0.6" d="M156.077 55.5132C155.952 56.5133 155.856 57.697 155.794 59.0933C157.656 58.5306 159.426 57.6938 161.045 56.6099L156.077 55.5132Z" fill="black"/>
<path id="Path_45" d="M164.16 56.0446C161.635 58.296 151.997 58.0689 151.997 58.0689L151.68 48.6766C154.935 49.1433 158.218 49.3822 161.506 49.3917C166.877 49.2806 166.915 53.5612 164.16 56.0446Z" fill="#1A87DD"/>
<path id="Path_46" d="M164.16 56.0446C161.635 58.296 151.997 58.0689 151.997 58.0689L151.68 48.6766C154.935 49.1433 158.218 49.3822 161.506 49.3917C166.877 49.2806 166.915 53.5612 164.16 56.0446Z" fill="url(#paint13_linear_1014_393)"/>
<path id="Path_47" d="M131.89 38.2843L129.49 35.4386L126.902 38.3375C126.902 38.3375 128.496 41.0334 131.026 40.6082L131.89 38.2843Z" fill="#E4897B"/>
<path id="Path_48" d="M126.053 32.1194L125.122 35.8348L126.883 38.3181L129.47 35.4386L126.053 32.1194Z" fill="#E4897B"/>
<path id="Path_49" d="M162.6 163.129L162.782 167.361H166.31L166.128 163.129H162.6Z" fill="#CE6F64"/>
<path id="Path_50" d="M185.88 163.129H182.352L183.264 167.361H186.792L185.88 163.129Z" fill="#CE6F64"/>
<path id="Path_51" d="M164.722 32.8537C161.558 31.4043 160.56 24.964 169.661 26.5729C169.661 26.5729 168.288 28.0996 171.072 29.0659C173.856 30.0322 171.528 35.999 164.722 32.8537Z" fill="#263238"/>
<path id="Path_52" d="M171.595 37.6852C170.688 41.0672 170.333 43.1254 168.235 44.541C165.096 46.6668 161.194 44.2269 161.069 40.6178C160.958 37.376 162.461 32.3561 166.085 31.67C167.711 31.349 169.387 31.9007 170.511 33.1272C171.634 34.3537 172.045 36.0793 171.595 37.6852Z" fill="#E4897B"/>
<path id="Path_53" d="M169.536 28.2639C171.691 29.4718 174.61 30.1965 174.336 31.9165C173.976 34.0182 176.098 32.704 175.603 35.8299C175.282 37.8736 171.538 44.0675 168.883 43.768C164.918 43.2848 165.422 37.2166 165.408 34.0182C165.398 32.1291 165.312 25.882 169.536 28.2639Z" fill="#263238"/>
<path id="Path_54" d="M164.933 30.9744C163.973 31.2014 162.701 36.7721 166.421 37.2842C170.698 37.8688 164.933 30.9744 164.933 30.9744Z" fill="#263238"/>
<path id="Path_55" d="M165.029 32.9504C163.853 33.0567 161.189 31.6314 161.515 29.4863C161.515 29.4718 163.2 31.9938 165.029 32.9504Z" fill="#263238"/>
<path id="Path_56" d="M166.776 37.7286C166.415 38.5252 165.802 39.1793 165.034 39.5887C164.021 40.1202 163.45 39.3472 163.68 38.3229C163.886 37.4049 164.664 36.0183 165.706 35.9072C166.747 35.7961 167.194 36.7624 166.776 37.7286Z" fill="#E4897B"/>
<path id="Path_57" d="M172.056 33.82C173.513 33.1836 174.555 31.8532 174.83 30.2786C174.83 30.2786 176.414 34.709 172.056 33.82Z" fill="#263238"/>
<path id="Path_58" d="M176.059 33.7475C175.381 33.2888 174.519 33.2036 173.765 33.5204C173.765 33.5204 175.243 31.5927 176.059 33.7475Z" fill="#263238"/>
<path id="Path_59" d="M163.954 81.0618C163.954 81.0618 167.957 108.185 170.15 118.346C172.55 129.458 181.622 166.544 181.622 166.544H188.078C188.078 166.544 182.102 130.371 180.73 119.336C179.242 107.379 176.122 81.0425 176.122 81.0425L163.954 81.0618Z" fill="#1A87DD"/>
<path id="Path_60" d="M163.954 81.0618C163.954 81.0618 167.957 108.185 170.15 118.346C172.55 129.458 181.622 166.544 181.622 166.544H188.078C188.078 166.544 182.102 130.371 180.73 119.336C179.242 107.379 176.122 81.0425 176.122 81.0425L163.954 81.0618Z" fill="url(#paint14_linear_1014_393)"/>
<path id="Path_61" d="M180.59 164.148C180.561 164.148 181.257 166.646 181.257 166.646H188.525L188.39 164.419L180.59 164.148Z" fill="#1A87DD"/>
<path id="Path_62" d="M180.59 164.148C180.561 164.148 181.257 166.646 181.257 166.646H188.525L188.39 164.419L180.59 164.148Z" fill="url(#paint15_linear_1014_393)"/>
<path id="Path_63" d="M166.483 90.7247C171.11 91.6379 170.621 109.007 170.064 117.94C168.73 111.626 166.776 99.4745 165.442 90.8503C165.764 90.6902 166.132 90.6459 166.483 90.7247Z" fill="#1A87DD"/>
<path id="Path_64" d="M166.483 90.7247C171.11 91.6379 170.621 109.007 170.064 117.94C168.73 111.626 166.776 99.4745 165.442 90.8503C165.764 90.6902 166.132 90.6459 166.483 90.7247Z" fill="url(#paint16_linear_1014_393)"/>
<path id="Path_65" d="M157.262 81.0618C157.262 81.0618 156.782 107.596 157.161 118.423C157.56 129.681 161.481 166.544 161.481 166.544H167.453C167.453 166.544 167.673 130.338 167.933 119.283C168.225 107.229 169.67 81.0618 169.67 81.0618L157.262 81.0618Z" fill="#1A87DD"/>
<path id="Path_66" d="M157.262 81.0618C157.262 81.0618 156.782 107.596 157.161 118.423C157.56 129.681 161.481 166.544 161.481 166.544H167.453C167.453 166.544 167.673 130.338 167.933 119.283C168.225 107.229 169.67 81.0618 169.67 81.0618L157.262 81.0618Z" fill="url(#paint17_linear_1014_393)"/>
<path id="Path_67" d="M160.32 164.148C160.296 164.148 160.661 166.646 160.661 166.646H167.923L168.12 164.419L160.32 164.148Z" fill="#1A87DD"/>
<path id="Path_68" d="M160.32 164.148C160.296 164.148 160.661 166.646 160.661 166.646H167.923L168.12 164.419L160.32 164.148Z" fill="url(#paint18_linear_1014_393)"/>
</g>
</g>
<defs>
<linearGradient id="paint0_linear_1014_393" x1="31.5298" y1="67.8348" x2="137.121" y2="67.8348" gradientUnits="userSpaceOnUse">
<stop stop-color="#27A89D"/>
<stop offset="1" stop-color="#001816"/>
</linearGradient>
<linearGradient id="paint1_linear_1014_393" x1="30.5742" y1="72.5189" x2="123.673" y2="72.5189" gradientUnits="userSpaceOnUse">
<stop stop-color="#27A89D"/>
<stop offset="1" stop-color="#12B9AB"/>
</linearGradient>
<linearGradient id="paint2_linear_1014_393" x1="67.4367" y1="52.7246" x2="126.163" y2="52.7246" gradientUnits="userSpaceOnUse">
<stop stop-color="#27A89D"/>
<stop offset="1" stop-color="#12B9AB"/>
</linearGradient>
<linearGradient id="paint3_linear_1014_393" x1="67.4379" y1="38.7733" x2="119.053" y2="38.7733" gradientUnits="userSpaceOnUse">
<stop stop-color="#27A89D"/>
<stop offset="1" stop-color="#001816"/>
</linearGradient>
<linearGradient id="paint4_linear_1014_393" x1="30.2437" y1="72.5189" x2="119.022" y2="72.5189" gradientUnits="userSpaceOnUse">
<stop stop-color="#27A89D"/>
<stop offset="1" stop-color="#001816"/>
</linearGradient>
<linearGradient id="paint5_linear_1014_393" x1="56.2454" y1="67.2031" x2="64.7533" y2="72.1867" gradientUnits="userSpaceOnUse">
<stop stop-color="#060441"/>
<stop offset="0.446023" stop-color="#2D2C4A"/>
<stop offset="1" stop-color="#2E2E3C"/>
</linearGradient>
<linearGradient id="paint6_linear_1014_393" x1="70.7288" y1="75.7264" x2="73.7888" y2="77.5188" gradientUnits="userSpaceOnUse">
<stop stop-color="#060441"/>
<stop offset="0.446023" stop-color="#2D2C4A"/>
<stop offset="1" stop-color="#2E2E3C"/>
</linearGradient>
<linearGradient id="paint7_linear_1014_393" x1="29.3266" y1="76.3561" x2="106.114" y2="76.3561" gradientUnits="userSpaceOnUse">
<stop stop-color="#27A89D"/>
<stop offset="1" stop-color="#001816"/>
</linearGradient>
<linearGradient id="paint8_linear_1014_393" x1="136.827" y1="88.9681" x2="136.827" y2="95.5519" gradientUnits="userSpaceOnUse">
<stop stop-color="#060441"/>
<stop offset="0.446023" stop-color="#2D2C4A"/>
<stop offset="1" stop-color="#2E2E3C"/>
</linearGradient>
<linearGradient id="paint9_linear_1014_393" x1="139.356" y1="83.1659" x2="139.356" y2="88.2702" gradientUnits="userSpaceOnUse">
<stop stop-color="#140B37"/>
<stop offset="1" stop-color="#070120"/>
</linearGradient>
<linearGradient id="paint10_linear_1014_393" x1="119.628" y1="88.9636" x2="119.628" y2="95.445" gradientUnits="userSpaceOnUse">
<stop stop-color="#060441"/>
<stop offset="0.446023" stop-color="#2D2C4A"/>
<stop offset="1" stop-color="#2E2E3C"/>
</linearGradient>
<linearGradient id="paint11_linear_1014_393" x1="173.351" y1="61.0114" x2="182.927" y2="61.0114" gradientUnits="userSpaceOnUse">
<stop stop-color="#27A89D"/>
<stop offset="1" stop-color="#12B9AB"/>
</linearGradient>
<linearGradient id="paint12_linear_1014_393" x1="157.139" y1="71.6571" x2="175.418" y2="71.6571" gradientUnits="userSpaceOnUse">
<stop stop-color="#27A89D"/>
<stop offset="1" stop-color="#12B9AB"/>
</linearGradient>
<linearGradient id="paint13_linear_1014_393" x1="152.61" y1="55.2941" x2="164.764" y2="55.2941" gradientUnits="userSpaceOnUse">
<stop stop-color="#27A89D"/>
<stop offset="1" stop-color="#12B9AB"/>
</linearGradient>
<linearGradient id="paint14_linear_1014_393" x1="176.016" y1="81.0425" x2="176.016" y2="166.544" gradientUnits="userSpaceOnUse">
<stop stop-color="#140B37"/>
<stop offset="1" stop-color="#070120"/>
</linearGradient>
<linearGradient id="paint15_linear_1014_393" x1="184.557" y1="164.148" x2="184.557" y2="166.646" gradientUnits="userSpaceOnUse">
<stop stop-color="#11B8AA"/>
<stop offset="1" stop-color="#0D3B57"/>
</linearGradient>
<linearGradient id="paint16_linear_1014_393" x1="167.927" y1="90.6866" x2="167.927" y2="117.94" gradientUnits="userSpaceOnUse">
<stop stop-color="#140B37"/>
<stop offset="1" stop-color="#070120"/>
</linearGradient>
<linearGradient id="paint17_linear_1014_393" x1="163.343" y1="81.0618" x2="163.343" y2="166.544" gradientUnits="userSpaceOnUse">
<stop stop-color="#140B37"/>
<stop offset="1" stop-color="#070120"/>
</linearGradient>
<linearGradient id="paint18_linear_1014_393" x1="164.219" y1="164.148" x2="164.219" y2="166.646" gradientUnits="userSpaceOnUse">
<stop stop-color="#11B8AA"/>
<stop offset="1" stop-color="#0D3B57"/>
</linearGradient>
</defs>
</svg>
