<svg width="364" height="201" viewBox="0 0 364 201" fill="none" xmlns="http://www.w3.org/2000/svg">
<rect x="0.28772" width="362.88" height="200.714" rx="20" fill="url(#paint0_linear_207_91)"/>
<g filter="url(#filter0_b_207_91)">
<rect x="0.28772" width="362.88" height="200.714" rx="20" fill="white" fill-opacity="0.02"/>
</g>
<path fill-rule="evenodd" clip-rule="evenodd" d="M145.232 62.7569C160.328 97.9609 174.831 131.784 241.462 129.967C302.601 128.299 341.38 134.462 363.455 145.119V180.714C363.455 191.76 354.501 200.714 343.455 200.714H20C8.9543 200.714 0 191.76 0 180.714V20C0 8.95432 8.95431 0 20 0H97.4208C124.526 14.4702 135.015 38.9299 145.232 62.7569Z" fill="white" fill-opacity="0.08"/>
<path fill-rule="evenodd" clip-rule="evenodd" d="M16.7238 0.266307C7.23667 1.82963 0 10.0694 0 19.9993V180.713C0 191.759 8.9543 200.713 20 200.713H343.455C350.372 200.713 356.469 197.202 360.06 191.864C371.391 160.517 340.315 133.502 222.955 136.702C159.331 138.438 145.482 106.141 131.067 72.5249C115.355 35.884 98.9712 -2.32368 16.7238 0.266307Z" fill="white" fill-opacity="0.08"/>
<path d="M52.955 57.719C54.135 57.939 55.105 58.529 55.865 59.489C56.625 60.449 57.005 61.549 57.005 62.789C57.005 63.909 56.725 64.899 56.165 65.759C55.625 66.599 54.835 67.259 53.795 67.739C52.755 68.219 51.525 68.459 50.105 68.459H41.075V47.519H49.715C51.135 47.519 52.355 47.749 53.375 48.209C54.415 48.669 55.195 49.309 55.715 50.129C56.255 50.949 56.525 51.879 56.525 52.919C56.525 54.139 56.195 55.159 55.535 55.979C54.895 56.799 54.035 57.379 52.955 57.719ZM45.275 56.159H49.115C50.115 56.159 50.885 55.939 51.425 55.499C51.965 55.039 52.235 54.389 52.235 53.549C52.235 52.709 51.965 52.059 51.425 51.599C50.885 51.139 50.115 50.909 49.115 50.909H45.275V56.159ZM49.505 65.039C50.525 65.039 51.315 64.799 51.875 64.319C52.455 63.839 52.745 63.159 52.745 62.279C52.745 61.379 52.445 60.679 51.845 60.179C51.245 59.659 50.435 59.399 49.415 59.399H45.275V65.039H49.505ZM74.6023 47.519V50.909H69.0223V68.459H64.8223V50.909H59.2423V47.519H74.6023ZM76.6468 57.959C76.6468 55.899 77.1068 54.059 78.0268 52.439C78.9668 50.799 80.2368 49.529 81.8368 48.629C83.4568 47.709 85.2668 47.249 87.2668 47.249C89.6068 47.249 91.6568 47.849 93.4168 49.049C95.1768 50.249 96.4068 51.909 97.1068 54.029H92.2768C91.7968 53.029 91.1168 52.279 90.2368 51.779C89.3768 51.279 88.3768 51.029 87.2368 51.029C86.0168 51.029 84.9268 51.319 83.9668 51.899C83.0268 52.459 82.2868 53.259 81.7468 54.299C81.2268 55.339 80.9668 56.559 80.9668 57.959C80.9668 59.339 81.2268 60.559 81.7468 61.619C82.2868 62.659 83.0268 63.469 83.9668 64.049C84.9268 64.609 86.0168 64.889 87.2368 64.889C88.3768 64.889 89.3768 64.639 90.2368 64.139C91.1168 63.619 91.7968 62.859 92.2768 61.859H97.1068C96.4068 63.999 95.1768 65.669 93.4168 66.869C91.6768 68.049 89.6268 68.639 87.2668 68.639C85.2668 68.639 83.4568 68.189 81.8368 67.289C80.2368 66.369 78.9668 65.099 78.0268 63.479C77.1068 61.859 76.6468 60.019 76.6468 57.959ZM113.234 68.459L108.704 61.409L104.594 68.459H99.8541L106.454 57.899L99.7641 47.519H104.594L109.124 54.539L113.204 47.519H117.944L111.374 58.049L118.064 68.459H113.234Z" fill="white"/>
<path d="M320.138 54.841C324.735 73.7692 312.719 93.1695 292.958 97.9683C273.198 102.767 253.622 91.039 249.025 72.1107C244.428 53.1825 256.445 33.7822 276.205 28.9834C295.966 24.1846 315.542 35.9127 320.138 54.841Z" fill="#F7931A" stroke="black" stroke-width="10"/>
<g clip-path="url(#clip0_207_91)">
<path d="M296.805 58.6338C299.106 56.704 300.189 54.0264 298.884 50.3205C297.108 45.2542 292.074 44.6334 286.131 45.5516L284.381 38.3511L279.87 39.4465L281.572 46.4583C280.385 46.7465 279.18 47.063 277.982 47.379L276.267 40.3226L271.76 41.4167L273.507 48.6159C272.535 48.8725 271.581 49.1239 270.644 49.3514L270.639 49.3301L264.416 50.8386L265.554 55.519C265.554 55.519 268.87 54.6491 268.83 54.7216C270.656 54.2792 271.503 55.1652 271.891 56.0133L273.884 64.2162L276.683 75.7391C276.738 76.317 276.616 77.2914 275.339 77.6032C275.41 77.6388 272.058 78.3996 272.058 78.3996L272.434 83.8508L278.303 82.4254C279.397 82.1611 280.476 81.9166 281.532 81.6688L283.305 88.9501L287.811 87.8571L286.06 80.6514C287.305 80.375 288.504 80.095 289.673 79.8097L291.413 86.9823L295.924 85.8868L294.161 78.616C301.641 76.3514 306.498 73.2058 305.478 66.1251C304.657 60.4242 301.354 58.5924 296.805 58.6338ZM279.341 52.5054C281.885 51.8875 289.695 49.157 290.951 54.3219C292.152 59.274 284.013 60.638 281.466 61.2565L279.341 52.5054ZM284.88 75.3238L282.539 65.6744C285.595 64.9312 294.976 61.7489 296.356 67.4257C297.679 72.8697 287.938 74.5788 284.88 75.3238Z" fill="white"/>
</g>
<defs>
<filter id="filter0_b_207_91" x="-79.7123" y="-80" width="522.88" height="360.714" filterUnits="userSpaceOnUse" color-interpolation-filters="sRGB">
<feFlood flood-opacity="0" result="BackgroundImageFix"/>
<feGaussianBlur in="BackgroundImageFix" stdDeviation="40"/>
<feComposite in2="SourceAlpha" operator="in" result="effect1_backgroundBlur_207_91"/>
<feBlend mode="normal" in="SourceGraphic" in2="effect1_backgroundBlur_207_91" result="shape"/>
</filter>
<linearGradient id="paint0_linear_207_91" x1="-51.7071" y1="-21.6988" x2="414.397" y2="222.348" gradientUnits="userSpaceOnUse">
<stop offset="0.243356" stop-color="#6A3B01"/>
<stop offset="0.878935" stop-color="#0C0804"/>
</linearGradient>
<clipPath id="clip0_207_91">
<rect width="39.5185" height="50.58" fill="white" transform="translate(261.735 42.999) rotate(-13.65)"/>
</clipPath>
</defs>
</svg>
