<svg width="285" height="170" viewBox="0 0 285 170" fill="none" xmlns="http://www.w3.org/2000/svg">
<g id="Card 01">
<g clip-path="url(#clip0_28_45)">
<path id="Rectangle" d="M0 15C0 6.71573 6.71573 0 15 0H270C278.284 0 285 6.71573 285 15V147C285 159.703 274.703 170 262 170H15C6.71572 170 0 163.284 0 155V15Z" fill="url(#paint0_linear_28_45)"/>
<g id="VISA Logo">
<g id="mastercard 1" clip-path="url(#clip1_28_45)">
<path id="Vector" d="M306.049 160.995C306.045 177.802 300.82 194.229 291.034 208.201C281.249 222.173 267.342 233.062 251.073 239.49C234.804 245.919 216.904 247.598 199.635 244.317C182.366 241.035 166.504 232.939 154.056 221.053C141.607 209.167 133.131 194.025 129.698 177.541C126.266 161.057 128.031 143.972 134.772 128.446C141.512 112.92 152.925 99.6504 167.567 90.3151C182.208 80.9798 199.422 75.9981 217.029 76C228.722 76.0013 240.299 78.2008 251.101 82.473C261.903 86.7452 271.717 93.0064 279.983 100.899C288.25 108.792 294.806 118.161 299.279 128.473C303.751 138.784 306.051 149.835 306.049 160.995V160.995Z" fill="#E2574C"/>
<path id="Vector_2" d="M323.941 76C304.752 76 286.083 81.9497 270.745 92.9533H270.824C273.904 95.3003 276.788 97.8715 279.451 100.644L260.93 100.92C258.041 103.745 255.356 106.754 252.893 109.926H285.541C288.029 112.595 290.324 115.422 292.41 118.388H246.962C245.279 121.128 243.759 123.957 242.409 126.86H297.582C299.037 129.517 300.317 132.257 301.416 135.065H239.135C238.131 138.016 237.304 141.02 236.658 144.061H304.022C304.681 147.006 305.19 149.722 305.54 152.495H235.331C235.031 155.296 234.881 158.136 234.881 160.995H306.049C306.039 163.836 305.859 166.674 305.51 169.496H235.331C235.63 172.38 236.076 175.214 236.668 177.996H303.912C303.213 180.75 302.415 183.523 301.406 186.392H238.935C239.886 189.275 241.003 192.107 242.28 194.873H297.582C296.044 197.796 294.313 200.622 292.4 203.336H246.802C248.594 206.309 250.578 209.174 252.743 211.912L285.551 212.379C282.541 215.248 279.314 217.901 275.896 220.318C276.076 220.451 270.665 220.318 260.032 220.136C270.265 230.207 282.951 237.704 296.958 241.956C310.966 246.208 325.858 247.083 340.306 244.504C354.755 241.926 368.309 235.972 379.76 227.176C391.211 218.38 400.202 207.015 405.931 194.095C411.659 181.175 413.947 167.102 412.591 153.132C411.234 139.163 406.274 125.731 398.155 114.036C390.036 102.342 379.009 92.7475 366.059 86.1104C353.109 79.4734 338.639 75.9999 323.941 76V76Z" fill="#F4B459"/>
</g>
</g>
<g id="VISA Logo_2">
<g id="mastercard 1_2" clip-path="url(#clip2_28_45)">
<path id="Vector_3" d="M253.833 22.919C253.833 24.6826 253.309 26.4064 252.329 27.8726C251.349 29.3387 249.956 30.4813 248.327 31.1559C246.697 31.8305 244.904 32.0067 243.175 31.6623C241.445 31.318 239.857 30.4685 238.61 29.2212C237.363 27.974 236.514 26.385 236.17 24.6553C235.826 22.9255 236.003 21.1327 236.678 19.5035C237.353 17.8742 238.496 16.4818 239.963 15.5022C241.429 14.5226 243.153 13.9998 244.917 14C246.088 14.0001 247.248 14.2309 248.33 14.6792C249.411 15.1275 250.394 15.7846 251.222 16.6128C252.05 17.441 252.707 18.4242 253.155 19.5062C253.603 20.5883 253.833 21.7479 253.833 22.919V22.919Z" fill="#E2574C"/>
<path id="Vector_4" d="M255.625 14C253.703 14 251.833 14.6243 250.297 15.779H250.305C250.613 16.0253 250.902 16.2951 251.169 16.586L249.314 16.615C249.025 16.9115 248.756 17.2272 248.509 17.56H251.779C252.028 17.8401 252.258 18.1368 252.467 18.448H247.915C247.746 18.7355 247.594 19.0323 247.459 19.337H252.985C253.131 19.6158 253.259 19.9033 253.369 20.198H247.131C247.031 20.5077 246.948 20.8229 246.883 21.142H253.63C253.696 21.451 253.747 21.736 253.782 22.027H246.75C246.72 22.321 246.705 22.619 246.705 22.919H253.833C253.832 23.2171 253.814 23.5149 253.779 23.811H246.75C246.78 24.1137 246.825 24.411 246.884 24.703H253.619C253.549 24.992 253.469 25.283 253.368 25.584H247.111C247.206 25.8866 247.318 26.1837 247.446 26.474H252.985C252.831 26.7807 252.658 27.0773 252.466 27.362H247.899C248.078 27.6741 248.277 27.9746 248.494 28.262L251.78 28.311C251.479 28.612 251.155 28.8904 250.813 29.144C250.831 29.158 250.289 29.144 249.224 29.125C250.249 30.1818 251.52 30.9684 252.923 31.4146C254.325 31.8608 255.817 31.9527 257.264 31.6821C258.711 31.4114 260.069 30.7867 261.216 29.8637C262.363 28.9407 263.263 27.7481 263.837 26.3923C264.411 25.0366 264.64 23.5598 264.504 22.0939C264.368 20.628 263.871 19.2186 263.058 17.9914C262.245 16.7642 261.141 15.7574 259.844 15.0609C258.546 14.3645 257.097 14 255.625 14V14Z" fill="#F4B459"/>
</g>
</g>
<g id="VISA Logo_3">
<g id="mastercard 1_3" clip-path="url(#clip3_28_45)">
<path id="Vector_5" d="M253.833 22.919C253.833 24.6826 253.309 26.4064 252.329 27.8726C251.349 29.3387 249.956 30.4813 248.327 31.1559C246.697 31.8305 244.904 32.0067 243.175 31.6623C241.445 31.318 239.857 30.4685 238.61 29.2212C237.363 27.974 236.514 26.385 236.17 24.6553C235.826 22.9255 236.003 21.1327 236.678 19.5035C237.353 17.8742 238.496 16.4818 239.963 15.5022C241.429 14.5226 243.153 13.9998 244.917 14C246.088 14.0001 247.248 14.2309 248.33 14.6792C249.411 15.1275 250.394 15.7846 251.222 16.6128C252.05 17.441 252.707 18.4242 253.155 19.5062C253.603 20.5883 253.833 21.7479 253.833 22.919V22.919Z" fill="#E2574C"/>
<path id="Vector_6" d="M255.625 14C253.703 14 251.833 14.6243 250.297 15.779H250.305C250.613 16.0253 250.902 16.2951 251.169 16.586L249.314 16.615C249.025 16.9115 248.756 17.2272 248.509 17.56H251.779C252.028 17.8401 252.258 18.1368 252.467 18.448H247.915C247.746 18.7355 247.594 19.0323 247.459 19.337H252.985C253.131 19.6158 253.259 19.9033 253.369 20.198H247.131C247.031 20.5077 246.948 20.8229 246.883 21.142H253.63C253.696 21.451 253.747 21.736 253.782 22.027H246.75C246.72 22.321 246.705 22.619 246.705 22.919H253.833C253.832 23.2171 253.814 23.5149 253.779 23.811H246.75C246.78 24.1137 246.825 24.411 246.884 24.703H253.619C253.549 24.992 253.469 25.283 253.368 25.584H247.111C247.206 25.8866 247.318 26.1837 247.446 26.474H252.985C252.831 26.7807 252.658 27.0773 252.466 27.362H247.899C248.078 27.6741 248.277 27.9746 248.494 28.262L251.78 28.311C251.479 28.612 251.155 28.8904 250.813 29.144C250.831 29.158 250.289 29.144 249.224 29.125C250.249 30.1818 251.52 30.9684 252.923 31.4146C254.325 31.8608 255.817 31.9527 257.264 31.6821C258.711 31.4114 260.069 30.7867 261.216 29.8637C262.363 28.9407 263.263 27.7481 263.837 26.3923C264.411 25.0366 264.64 23.5598 264.504 22.0939C264.368 20.628 263.871 19.2186 263.058 17.9914C262.245 16.7642 261.141 15.7574 259.844 15.0609C258.546 14.3645 257.097 14 255.625 14V14Z" fill="#F4B459"/>
</g>
</g>
<g id="Rectangle_2">
<rect id="Rectangle_3" x="21" y="33" width="33" height="24" rx="5" fill="#F0C753"/>
<rect id="Rectangle_4" x="44" y="58" width="12" height="26" rx="3" transform="rotate(180 44 58)" fill="#F7CB6B"/>
<rect id="Rectangle_5" x="43.5" y="57.5" width="11" height="25" rx="2.5" transform="rotate(180 43.5 57.5)" stroke="#208CE0"/>
<path id="Path" d="M23 50C21.3431 50 20 48.6569 20 47V43C20 41.3431 21.3431 40 23 40H32C33.6569 40 35 41.3431 35 43V47C35 48.6569 33.6569 50 32 50H23Z" fill="#F7CB6B"/>
<path id="Path_2" fill-rule="evenodd" clip-rule="evenodd" d="M20.5 49V41C20.5 40.7239 20.7239 40.5 21 40.5H32C33.3807 40.5 34.5 41.6193 34.5 43V47C34.5 47.663 34.2366 48.2989 33.7678 48.7678C33.2989 49.2366 32.663 49.5 32 49.5H21C20.7239 49.5 20.5 49.2761 20.5 49Z" stroke="#208CE0"/>
<path id="Path_3" d="M54 40C54.5523 40 55 40.4477 55 41V49C55 49.5523 54.5523 50 54 50H43C41.3431 50 40 48.6569 40 47V43C40 41.3431 41.3431 40 43 40H54Z" fill="#F7CB6B"/>
<path id="Path_4" fill-rule="evenodd" clip-rule="evenodd" d="M54.5 41V49C54.5 49.2761 54.2761 49.5 54 49.5H43C41.6193 49.5 40.5 48.3807 40.5 47V43C40.5 42.337 40.7634 41.7011 41.2322 41.2322C41.7011 40.7634 42.337 40.5 43 40.5H54C54.2761 40.5 54.5 40.7239 54.5 41Z" stroke="#208CE0"/>
</g>
</g>
</g>
<defs>
<linearGradient id="paint0_linear_28_45" x1="-6.80857" y1="176.211" x2="277.021" y2="198.946" gradientUnits="userSpaceOnUse">
<stop stop-color="#174B74"/>
<stop offset="1" stop-color="#F58445"/>
</linearGradient>
<clipPath id="clip0_28_45">
<rect width="285" height="170" rx="10" fill="white"/>
</clipPath>
<clipPath id="clip1_28_45">
<rect width="285" height="170" fill="white" transform="translate(128 76)"/>
</clipPath>
<clipPath id="clip2_28_45">
<rect width="28.545" height="17.839" fill="white" transform="translate(236 14)"/>
</clipPath>
<clipPath id="clip3_28_45">
<rect width="28.545" height="17.839" fill="white" transform="translate(236 14)"/>
</clipPath>
</defs>
</svg>
