<svg width="285" height="170" viewBox="0 0 285 170" fill="none" xmlns="http://www.w3.org/2000/svg">
<g id="Card 02">
<g clip-path="url(#clip0_28_13)">
<rect id="Rectangle" width="285" height="170" rx="15" fill="url(#paint0_linear_28_13)"/>
<g id="VISA Logo">
<g id="Mask" opacity="0.01">
<rect width="285" height="170" rx="10" fill="url(#paint1_linear_28_13)"/>
<rect width="285" height="170" rx="10" fill="black" fill-opacity="0.2"/>
</g>
<mask id="mask0_28_13" style="mask-type:alpha" maskUnits="userSpaceOnUse" x="0" y="0" width="285" height="170">
<rect id="Mask_2" width="285" height="170" rx="10" fill="white"/>
</mask>
<g mask="url(#mask0_28_13)">
<g id="VISA Logo_2" opacity="0.101761">
<g id="Shape">
<path fill-rule="evenodd" clip-rule="evenodd" d="M306.847 91.9022C306.625 109.726 322.723 119.68 334.852 125.601C347.314 131.67 351.505 135.567 351.455 140.995C351.357 149.308 341.508 152.972 332.288 153.107C320.846 153.358 309.531 150.665 299.427 145.287L293.634 172.424C304.974 176.844 317.049 179.075 329.219 178.998C362.832 178.998 384.822 162.395 384.945 136.653C385.026 117.088 368.819 108.571 355.866 101.763C347.186 97.2014 339.967 93.4077 340.091 87.5726C340.202 83.1445 344.417 78.4202 353.649 77.2114C364.474 76.1734 375.378 78.0872 385.204 82.7497L390.825 56.5013C381.248 52.8945 371.104 51.0314 360.872 51C329.231 51 306.983 67.8246 306.798 91.9268L306.847 91.9022ZM444.85 53.2696C438.903 53.246 433.538 56.8383 431.291 62.348L383.22 177.062H416.808L423.489 158.559H464.535L468.417 177.062H498L472.115 53.2573H444.936L444.85 53.2696ZM459.321 133.236L449.632 86.7092L449.595 86.6845L432.77 133.236H459.321ZM266.122 53.2449L239.645 177.049H271.693L298.157 53.2449H266.122ZM185.485 137.516L218.765 53.2449H218.777H252.378L200.535 177.049H166.712L141.185 78.2475C140.717 73.5428 137.835 69.421 133.579 67.3683C123.534 62.5499 112.925 59.011 102 56.8344L102.764 53.2449H157.196C164.565 53.2173 170.849 58.5784 171.987 65.8634L185.485 137.516Z" fill="url(#paint2_linear_28_13)"/>
<path fill-rule="evenodd" clip-rule="evenodd" d="M306.847 91.9022C306.625 109.726 322.723 119.68 334.852 125.601C347.314 131.67 351.505 135.567 351.455 140.995C351.357 149.308 341.508 152.972 332.288 153.107C320.846 153.358 309.531 150.665 299.427 145.287L293.634 172.424C304.974 176.844 317.049 179.075 329.219 178.998C362.832 178.998 384.822 162.395 384.945 136.653C385.026 117.088 368.819 108.571 355.866 101.763C347.186 97.2014 339.967 93.4077 340.091 87.5726C340.202 83.1445 344.417 78.4202 353.649 77.2114C364.474 76.1734 375.378 78.0872 385.204 82.7497L390.825 56.5013C381.248 52.8945 371.104 51.0314 360.872 51C329.231 51 306.983 67.8246 306.798 91.9268L306.847 91.9022ZM444.85 53.2696C438.903 53.246 433.538 56.8383 431.291 62.348L383.22 177.062H416.808L423.489 158.559H464.535L468.417 177.062H498L472.115 53.2573H444.936L444.85 53.2696ZM459.321 133.236L449.632 86.7092L449.595 86.6845L432.77 133.236H459.321ZM266.122 53.2449L239.645 177.049H271.693L298.157 53.2449H266.122ZM185.485 137.516L218.765 53.2449H218.777H252.378L200.535 177.049H166.712L141.185 78.2475C140.717 73.5428 137.835 69.421 133.579 67.3683C123.534 62.5499 112.925 59.011 102 56.8344L102.764 53.2449H157.196C164.565 53.2173 170.849 58.5784 171.987 65.8634L185.485 137.516Z" fill="black" fill-opacity="0.2"/>
</g>
</g>
</g>
</g>
<g id="VISA Logo_3">
<path id="Shape_2" fill-rule="evenodd" clip-rule="evenodd" d="M248.619 18.317C248.601 19.762 249.907 20.569 250.891 21.049C251.902 21.541 252.242 21.857 252.238 22.297C252.23 22.971 251.431 23.268 250.683 23.279C249.755 23.2993 248.837 23.081 248.017 22.645L247.547 24.845C248.467 25.2034 249.447 25.3842 250.434 25.378C253.161 25.378 254.945 24.032 254.955 21.945C254.962 20.3589 253.647 19.6683 252.596 19.1164C251.892 18.7466 251.306 18.439 251.316 17.966C251.325 17.607 251.667 17.224 252.416 17.126C253.294 17.0418 254.179 17.197 254.976 17.575L255.432 15.447C254.655 15.1546 253.832 15.0035 253.002 15.001C250.435 15.001 248.63 16.365 248.615 18.319L248.619 18.317ZM259.815 15.185C259.333 15.1831 258.897 15.4743 258.715 15.921L254.815 25.221H257.54L258.082 23.721H261.412L261.727 25.221H264.127L262.027 15.184H259.822L259.815 15.185ZM260.989 21.668L260.203 17.896L260.2 17.894L258.835 21.668H260.989ZM245.315 15.183L243.167 25.22H245.767L247.914 15.183H245.315ZM238.773 22.015L241.473 15.183H241.474H244.2L239.994 25.22H237.25L235.179 17.21C235.141 16.8286 234.907 16.4944 234.562 16.328C233.747 15.9373 232.886 15.6504 232 15.474L232.062 15.183H236.478C237.076 15.1807 237.586 15.6154 237.678 16.206L238.773 22.015Z" fill="white"/>
</g>
<g id="Rectangle_2">
<rect id="Rectangle_3" x="21" y="33" width="33" height="24" rx="5" fill="#F0C753"/>
<rect id="Rectangle_4" x="44" y="58" width="12" height="26" rx="3" transform="rotate(180 44 58)" fill="#F7CB6B"/>
<rect id="Rectangle_5" x="43.5" y="57.5" width="11" height="25" rx="2.5" transform="rotate(180 43.5 57.5)" stroke="white"/>
<path id="Path" d="M23 50C21.3431 50 20 48.6569 20 47V43C20 41.3431 21.3431 40 23 40H32C33.6569 40 35 41.3431 35 43V47C35 48.6569 33.6569 50 32 50H23Z" fill="#F7CB6B"/>
<path id="Path_2" fill-rule="evenodd" clip-rule="evenodd" d="M20.5 49V41C20.5 40.7239 20.7239 40.5 21 40.5H32C33.3807 40.5 34.5 41.6193 34.5 43V47C34.5 47.663 34.2366 48.2989 33.7678 48.7678C33.2989 49.2366 32.663 49.5 32 49.5H21C20.7239 49.5 20.5 49.2761 20.5 49Z" stroke="white"/>
<path id="Path_3" d="M54 40C54.5523 40 55 40.4477 55 41V49C55 49.5523 54.5523 50 54 50H43C41.3431 50 40 48.6569 40 47V43C40 41.3431 41.3431 40 43 40H54Z" fill="#F7CB6B"/>
<path id="Path_4" fill-rule="evenodd" clip-rule="evenodd" d="M54.5 41V49C54.5 49.2761 54.2761 49.5 54 49.5H43C41.6193 49.5 40.5 48.3807 40.5 47V43C40.5 42.337 40.7634 41.7011 41.2322 41.2322C41.7011 40.7634 42.337 40.5 43 40.5H54C54.2761 40.5 54.5 40.7239 54.5 41Z" stroke="white"/>
</g>
</g>
</g>
<defs>
<linearGradient id="paint0_linear_28_13" x1="-6.80857" y1="176.211" x2="277.021" y2="198.946" gradientUnits="userSpaceOnUse">
<stop stop-color="#000053"/>
<stop offset="1" stop-color="#104B79"/>
</linearGradient>
<linearGradient id="paint1_linear_28_13" x1="142.5" y1="0" x2="142.5" y2="143.747" gradientUnits="userSpaceOnUse">
<stop stop-color="#060441"/>
<stop offset="0.446023" stop-color="#2D2C4A"/>
<stop offset="1" stop-color="#2E2E3C"/>
</linearGradient>
<linearGradient id="paint2_linear_28_13" x1="300" y1="51" x2="300" y2="159.233" gradientUnits="userSpaceOnUse">
<stop stop-color="#060441"/>
<stop offset="0.446023" stop-color="#2D2C4A"/>
<stop offset="1" stop-color="#2E2E3C"/>
</linearGradient>
<clipPath id="clip0_28_13">
<rect width="285" height="170" rx="10" fill="white"/>
</clipPath>
</defs>
</svg>
